{
	"asset":{
		"generator":"Khronos glTF Blender I/O v4.3.47",
		"version":"2.0"
	},
	"extensionsUsed":[
		"KHR_materials_emissive_strength"
	],
	"scene":0,
	"scenes":[
		{
			"name":"Scene",
			"nodes":[
				0,
				1,
				2
			]
		}
	],
	"nodes":[
		{
			"mesh":0,
			"name":"Construction_site_01",
			"translation":[
				29.425628662109375,
				16.111783981323242,
				-1.4891128540039062
			]
		},
		{
			"mesh":1,
			"name":"Construction_site_02",
			"translation":[
				-0.04499077796936035,
				17.493083953857422,
				-1.6256790161132812
			]
		},
		{
			"mesh":2,
			"name":"Construction_site_03",
			"translation":[
				-28.513038635253906,
				9.220072746276855,
				-1.6189346313476562
			]
		}
	],
	"materials":[
		{
			"doubleSided":true,
			"name":"Sci-Fi_Material",
			"normalTexture":{
				"index":0
			},
			"pbrMetallicRoughness":{
				"baseColorTexture":{
					"index":1
				},
				"metallicRoughnessTexture":{
					"index":2
				}
			}
		},
		{
			"doubleSided":true,
			"emissiveFactor":[
				1,
				0.5356092067605924,
				0.25270559427971556
			],
			"extensions":{
				"KHR_materials_emissive_strength":{
					"emissiveStrength":8.626455545425415
				}
			},
			"name":"Sci-Fi_Emission",
			"pbrMetallicRoughness":{
				"baseColorFactor":[
					0.800000011920929,
					0.800000011920929,
					0.800000011920929,
					1
				],
				"metallicFactor":0,
				"roughnessFactor":0.4000000059604645
			}
		}
	],
	"meshes":[
		{
			"name":"Cube.049",
			"primitives":[
				{
					"attributes":{
						"POSITION":0,
						"NORMAL":1,
						"TEXCOORD_0":2,
						"COLOR_0":3,
						"COLOR_1":4
					},
					"indices":5,
					"material":0
				},
				{
					"attributes":{
						"POSITION":6,
						"NORMAL":7,
						"TEXCOORD_0":8,
						"COLOR_0":9,
						"COLOR_1":10
					},
					"indices":11,
					"material":1
				}
			]
		},
		{
			"name":"Cylinder.042",
			"primitives":[
				{
					"attributes":{
						"POSITION":12,
						"NORMAL":13,
						"TEXCOORD_0":14,
						"COLOR_0":15,
						"COLOR_1":16
					},
					"indices":17,
					"material":0
				},
				{
					"attributes":{
						"POSITION":18,
						"NORMAL":19,
						"TEXCOORD_0":20,
						"COLOR_0":21,
						"COLOR_1":22
					},
					"indices":23,
					"material":1
				}
			]
		},
		{
			"name":"Plane.023",
			"primitives":[
				{
					"attributes":{
						"POSITION":24,
						"NORMAL":25,
						"TEXCOORD_0":26,
						"COLOR_0":27,
						"COLOR_1":28
					},
					"indices":29,
					"material":0
				},
				{
					"attributes":{
						"POSITION":30,
						"NORMAL":31,
						"TEXCOORD_0":32,
						"COLOR_0":33,
						"COLOR_1":34
					},
					"indices":35,
					"material":1
				}
			]
		}
	],
	"textures":[
		{
			"sampler":0,
			"source":0
		},
		{
			"sampler":0,
			"source":1
		},
		{
			"sampler":0,
			"source":2
		}
	],
	"images":[
		{
			"mimeType":"image/png",
			"name":"scifi_material_normal",
			"uri":"scifi_material_normal.png"
		},
		{
			"mimeType":"image/jpeg",
			"name":"scifi_material_albedo",
			"uri":"scifi_material_albedo.jpg"
		},
		{
			"mimeType":"image/png",
			"name":"scifi_material_metallic-scifi_material_roughness",
			"uri":"scifi_material_metallic-scifi_material_roughness.png"
		}
	],
	"accessors":[
		{
			"bufferView":0,
			"componentType":5126,
			"count":50956,
			"max":[
				14.152263641357422,
				17.5870418548584,
				14.576915740966797
			],
			"min":[
				-14.152263641357422,
				-17.655792236328125,
				-14.576915740966797
			],
			"type":"VEC3"
		},
		{
			"bufferView":1,
			"componentType":5126,
			"count":50956,
			"type":"VEC3"
		},
		{
			"bufferView":2,
			"componentType":5126,
			"count":50956,
			"type":"VEC2"
		},
		{
			"bufferView":3,
			"componentType":5121,
			"count":50956,
			"normalized":true,
			"type":"VEC4"
		},
		{
			"bufferView":4,
			"componentType":5123,
			"count":50956,
			"normalized":true,
			"type":"VEC4"
		},
		{
			"bufferView":5,
			"componentType":5123,
			"count":119256,
			"type":"SCALAR"
		},
		{
			"bufferView":6,
			"componentType":5126,
			"count":586,
			"max":[
				11.690811157226562,
				17.655794143676758,
				9.635734558105469
			],
			"min":[
				-10.110633850097656,
				-13.358985900878906,
				-7.863916873931885
			],
			"type":"VEC3"
		},
		{
			"bufferView":7,
			"componentType":5126,
			"count":586,
			"type":"VEC3"
		},
		{
			"bufferView":8,
			"componentType":5126,
			"count":586,
			"type":"VEC2"
		},
		{
			"bufferView":9,
			"componentType":5121,
			"count":586,
			"normalized":true,
			"type":"VEC4"
		},
		{
			"bufferView":10,
			"componentType":5123,
			"count":586,
			"normalized":true,
			"type":"VEC4"
		},
		{
			"bufferView":11,
			"componentType":5123,
			"count":876,
			"type":"SCALAR"
		},
		{
			"bufferView":12,
			"componentType":5126,
			"count":32163,
			"max":[
				12.056039810180664,
				18.43283462524414,
				11.436487197875977
			],
			"min":[
				-12.056039810180664,
				-18.500534057617188,
				-11.436487197875977
			],
			"type":"VEC3"
		},
		{
			"bufferView":13,
			"componentType":5126,
			"count":32163,
			"type":"VEC3"
		},
		{
			"bufferView":14,
			"componentType":5126,
			"count":32163,
			"type":"VEC2"
		},
		{
			"bufferView":15,
			"componentType":5121,
			"count":32163,
			"normalized":true,
			"type":"VEC4"
		},
		{
			"bufferView":16,
			"componentType":5123,
			"count":32163,
			"normalized":true,
			"type":"VEC4"
		},
		{
			"bufferView":17,
			"componentType":5123,
			"count":77649,
			"type":"SCALAR"
		},
		{
			"bufferView":18,
			"componentType":5126,
			"count":424,
			"max":[
				7.112227439880371,
				18.500534057617188,
				5.39965295791626
			],
			"min":[
				-9.728370666503906,
				-11.990826606750488,
				-8.519314765930176
			],
			"type":"VEC3"
		},
		{
			"bufferView":19,
			"componentType":5126,
			"count":424,
			"type":"VEC3"
		},
		{
			"bufferView":20,
			"componentType":5126,
			"count":424,
			"type":"VEC2"
		},
		{
			"bufferView":21,
			"componentType":5121,
			"count":424,
			"normalized":true,
			"type":"VEC4"
		},
		{
			"bufferView":22,
			"componentType":5123,
			"count":424,
			"normalized":true,
			"type":"VEC4"
		},
		{
			"bufferView":23,
			"componentType":5123,
			"count":702,
			"type":"SCALAR"
		},
		{
			"bufferView":24,
			"componentType":5126,
			"count":25751,
			"max":[
				11.436488151550293,
				10.550215721130371,
				11.436487197875977
			],
			"min":[
				-11.436488151550293,
				-10.550214767456055,
				-11.436487197875977
			],
			"type":"VEC3"
		},
		{
			"bufferView":25,
			"componentType":5126,
			"count":25751,
			"type":"VEC3"
		},
		{
			"bufferView":26,
			"componentType":5126,
			"count":25751,
			"type":"VEC2"
		},
		{
			"bufferView":27,
			"componentType":5121,
			"count":25751,
			"normalized":true,
			"type":"VEC4"
		},
		{
			"bufferView":28,
			"componentType":5123,
			"count":25751,
			"normalized":true,
			"type":"VEC4"
		},
		{
			"bufferView":29,
			"componentType":5123,
			"count":42957,
			"type":"SCALAR"
		},
		{
			"bufferView":30,
			"componentType":5126,
			"count":105,
			"max":[
				4.930449485778809,
				8.096793174743652,
				8.49306869506836
			],
			"min":[
				-8.28377914428711,
				1.5723142623901367,
				-8.171316146850586
			],
			"type":"VEC3"
		},
		{
			"bufferView":31,
			"componentType":5126,
			"count":105,
			"type":"VEC3"
		},
		{
			"bufferView":32,
			"componentType":5126,
			"count":105,
			"type":"VEC2"
		},
		{
			"bufferView":33,
			"componentType":5121,
			"count":105,
			"normalized":true,
			"type":"VEC4"
		},
		{
			"bufferView":34,
			"componentType":5123,
			"count":105,
			"normalized":true,
			"type":"VEC4"
		},
		{
			"bufferView":35,
			"componentType":5123,
			"count":153,
			"type":"SCALAR"
		}
	],
	"bufferViews":[
		{
			"buffer":0,
			"byteLength":611472,
			"byteOffset":0,
			"target":34962
		},
		{
			"buffer":0,
			"byteLength":611472,
			"byteOffset":611472,
			"target":34962
		},
		{
			"buffer":0,
			"byteLength":407648,
			"byteOffset":1222944,
			"target":34962
		},
		{
			"buffer":0,
			"byteLength":203824,
			"byteOffset":1630592,
			"target":34962
		},
		{
			"buffer":0,
			"byteLength":407648,
			"byteOffset":1834416,
			"target":34962
		},
		{
			"buffer":0,
			"byteLength":238512,
			"byteOffset":2242064,
			"target":34963
		},
		{
			"buffer":0,
			"byteLength":7032,
			"byteOffset":2480576,
			"target":34962
		},
		{
			"buffer":0,
			"byteLength":7032,
			"byteOffset":2487608,
			"target":34962
		},
		{
			"buffer":0,
			"byteLength":4688,
			"byteOffset":2494640,
			"target":34962
		},
		{
			"buffer":0,
			"byteLength":2344,
			"byteOffset":2499328,
			"target":34962
		},
		{
			"buffer":0,
			"byteLength":4688,
			"byteOffset":2501672,
			"target":34962
		},
		{
			"buffer":0,
			"byteLength":1752,
			"byteOffset":2506360,
			"target":34963
		},
		{
			"buffer":0,
			"byteLength":385956,
			"byteOffset":2508112,
			"target":34962
		},
		{
			"buffer":0,
			"byteLength":385956,
			"byteOffset":2894068,
			"target":34962
		},
		{
			"buffer":0,
			"byteLength":257304,
			"byteOffset":3280024,
			"target":34962
		},
		{
			"buffer":0,
			"byteLength":128652,
			"byteOffset":3537328,
			"target":34962
		},
		{
			"buffer":0,
			"byteLength":257304,
			"byteOffset":3665980,
			"target":34962
		},
		{
			"buffer":0,
			"byteLength":155298,
			"byteOffset":3923284,
			"target":34963
		},
		{
			"buffer":0,
			"byteLength":5088,
			"byteOffset":4078584,
			"target":34962
		},
		{
			"buffer":0,
			"byteLength":5088,
			"byteOffset":4083672,
			"target":34962
		},
		{
			"buffer":0,
			"byteLength":3392,
			"byteOffset":4088760,
			"target":34962
		},
		{
			"buffer":0,
			"byteLength":1696,
			"byteOffset":4092152,
			"target":34962
		},
		{
			"buffer":0,
			"byteLength":3392,
			"byteOffset":4093848,
			"target":34962
		},
		{
			"buffer":0,
			"byteLength":1404,
			"byteOffset":4097240,
			"target":34963
		},
		{
			"buffer":0,
			"byteLength":309012,
			"byteOffset":4098644,
			"target":34962
		},
		{
			"buffer":0,
			"byteLength":309012,
			"byteOffset":4407656,
			"target":34962
		},
		{
			"buffer":0,
			"byteLength":206008,
			"byteOffset":4716668,
			"target":34962
		},
		{
			"buffer":0,
			"byteLength":103004,
			"byteOffset":4922676,
			"target":34962
		},
		{
			"buffer":0,
			"byteLength":206008,
			"byteOffset":5025680,
			"target":34962
		},
		{
			"buffer":0,
			"byteLength":85914,
			"byteOffset":5231688,
			"target":34963
		},
		{
			"buffer":0,
			"byteLength":1260,
			"byteOffset":5317604,
			"target":34962
		},
		{
			"buffer":0,
			"byteLength":1260,
			"byteOffset":5318864,
			"target":34962
		},
		{
			"buffer":0,
			"byteLength":840,
			"byteOffset":5320124,
			"target":34962
		},
		{
			"buffer":0,
			"byteLength":420,
			"byteOffset":5320964,
			"target":34962
		},
		{
			"buffer":0,
			"byteLength":840,
			"byteOffset":5321384,
			"target":34962
		},
		{
			"buffer":0,
			"byteLength":306,
			"byteOffset":5322224,
			"target":34963
		}
	],
	"samplers":[
		{
			"magFilter":9729,
			"minFilter":9987
		}
	],
	"buffers":[
		{
			"byteLength":5322532,
			"uri":"sci_fi_blocks_3builds.bin"
		}
	]
}
